<svg
    fill="none"
    viewBox="0 0 24 24"
    xmlns="http://www.w3.org/2000/svg"
>
    <path fill="#5865F2" d="M20.317 4.516C18.761 3.80185 17.119 3.2926 15.432 3.001C15.4166 2.998 15.4007 2.99997 15.3865 3.00662C15.3723 3.01327 15.3605 3.02426 15.353 3.038C15.143 3.414 14.909 3.903 14.745 4.288C12.9264 4.0118 11.0766 4.0118 9.258 4.288C9.07548 3.8603 8.8695 3.443 8.641 3.038C8.63312 3.02457 8.62135 3.01384 8.60725 3.00723C8.59314 3.00063 8.57736 2.99845 8.562 3.001C6.87485 3.29199 5.23273 3.80127 3.677 4.516C3.66369 4.52179 3.65251 4.53157 3.645 4.544C0.533 9.192 -0.32 13.726 0.099 18.204C0.100018 18.2151 0.103292 18.2259 0.108622 18.2357C0.113953 18.2455 0.121227 18.2541 0.13 18.261C1.94169 19.6028 3.96819 20.6271 6.123 21.29C6.13818 21.2945 6.15439 21.2943 6.16943 21.2893C6.18446 21.2843 6.19758 21.2747 6.207 21.262C6.66977 20.6322 7.07983 19.9652 7.433 19.268C7.454 19.228 7.434 19.178 7.392 19.162C6.74543 18.9146 6.11947 18.6163 5.52 18.27C5.50901 18.2636 5.49976 18.2547 5.49308 18.2439C5.4864 18.2331 5.48249 18.2208 5.48169 18.2081C5.4809 18.1955 5.48325 18.1828 5.48854 18.1713C5.49383 18.1597 5.50189 18.1497 5.512 18.142C5.638 18.048 5.764 17.95 5.884 17.852C5.89465 17.843 5.90762 17.8372 5.92141 17.8353C5.93521 17.8333 5.94928 17.8353 5.962 17.841C9.889 19.634 14.142 19.634 18.023 17.841C18.0358 17.835 18.05 17.8327 18.064 17.8345C18.078 17.8362 18.0912 17.842 18.102 17.851C18.222 17.949 18.347 18.048 18.474 18.142C18.518 18.175 18.514 18.242 18.468 18.27C17.87 18.62 17.248 18.915 16.595 19.162C16.585 19.1659 16.576 19.1718 16.5684 19.1794C16.5609 19.1869 16.555 19.196 16.5511 19.206C16.5473 19.2159 16.5455 19.2266 16.546 19.2373C16.5465 19.248 16.5492 19.2584 16.554 19.268C16.914 19.966 17.326 20.631 17.779 21.261C17.7882 21.274 17.8012 21.2839 17.8163 21.2891C17.8314 21.2943 17.8477 21.2946 17.863 21.29C20.0215 20.6289 22.0513 19.6042 23.865 18.26C23.8739 18.2536 23.8814 18.2454 23.8869 18.236C23.8925 18.2265 23.8959 18.2159 23.897 18.205C24.397 13.028 23.059 8.531 20.348 4.545C20.3415 4.53188 20.3305 4.52157 20.317 4.516ZM8.02 15.478C6.838 15.478 5.863 14.392 5.863 13.058C5.863 11.726 6.819 10.64 8.02 10.64C9.23 10.64 10.196 11.735 10.177 13.059C10.177 14.392 9.221 15.478 8.02 15.478ZM15.995 15.478C14.812 15.478 13.838 14.392 13.838 13.058C13.838 11.726 14.793 10.64 15.995 10.64C17.205 10.64 18.171 11.735 18.152 13.059C18.152 14.392 17.206 15.478 15.995 15.478Z" />
</svg>
