<svg
    fill="none"
    viewBox="0 0 24 24"
    xmlns="http://www.w3.org/2000/svg"
>
    <path fill="url(#gradient_1)" d="M23.93 7.05C23.9099 6.05524 23.7206 5.07116 23.37 4.14C23.0653 3.34064 22.5951 2.61471 21.9902 2.0098C21.3853 1.4049 20.6594 0.934688 19.86 0.63C18.9446 0.284951 17.9779 0.0956656 17 0.07C15.67 0 15.26 0 12 0C8.74 0 8.33 0 7.05 0.07C6.05524 0.0900524 5.07116 0.279428 4.14 0.63C3.34064 0.934688 2.61471 1.4049 2.0098 2.0098C1.4049 2.61471 0.934688 3.34064 0.63 4.14C0.279428 5.07116 0.0900524 6.05524 0.07 7.05C0 8.33 0 8.74 0 12C0 15.26 0 15.67 0.07 17C0.09 17.995 0.28 18.979 0.63 19.91C0.934688 20.7094 1.4049 21.4353 2.0098 22.0402C2.61471 22.6451 3.34064 23.1153 4.14 23.42C5.07116 23.7706 6.05524 23.9599 7.05 23.98C8.33 24 8.74 24 12 24C15.26 24 15.67 24 16.95 23.93C17.9449 23.9109 18.9291 23.7215 19.86 23.37C20.6575 23.062 21.3817 22.5907 21.9862 21.9862C22.5907 21.3817 23.062 20.6575 23.37 19.86C23.715 18.9446 23.9043 17.9779 23.93 17C24 15.67 24 15.26 24 12C24 8.74 24 8.33 23.93 7.05ZM21.77 16.85C21.7584 17.6119 21.6163 18.3661 21.35 19.08C21.1489 19.5946 20.8434 20.062 20.4527 20.4527C20.062 20.8434 19.5946 21.1489 19.08 21.35C18.3661 21.6163 17.6119 21.7584 16.85 21.77C15.58 21.83 15.2 21.84 12 21.84C8.8 21.84 8.42 21.84 7.15 21.77C6.38814 21.7584 5.63389 21.6163 4.92 21.35C4.39898 21.1608 3.92729 20.8566 3.54 20.46C3.14345 20.0727 2.83925 19.601 2.65 19.08C2.38365 18.3661 2.2416 17.6119 2.23 16.85C2.17 15.58 2.16 15.2 2.16 12C2.16 8.8 2.16 8.42 2.23 7.15C2.2416 6.38813 2.38365 5.63389 2.65 4.92C2.83925 4.39899 3.14345 3.92731 3.54 3.54C3.92731 3.14345 4.39899 2.83925 4.92 2.65C5.63389 2.38365 6.38813 2.2416 7.15 2.23C8.42 2.17 8.8 2.16 12 2.16C15.2 2.16 15.58 2.16 16.85 2.23C17.6119 2.2416 18.3661 2.38365 19.08 2.65C19.601 2.84 20.073 3.143 20.46 3.54C20.857 3.927 21.16 4.399 21.35 4.92C21.616 5.634 21.758 6.388 21.77 7.15C21.83 8.42 21.84 8.8 21.84 12C21.84 15.2 21.83 15.58 21.77 16.85Z" />
    <path fill="url(#gradient_2)" d="M12 5.84C10.3663 5.84 8.79944 6.489 7.64422 7.64422C6.48899 8.79945 5.84 10.3663 5.84 12C5.84 13.6337 6.48899 15.2006 7.64422 16.3558C8.79944 17.511 10.3663 18.16 12 18.16C13.6337 18.16 15.2006 17.511 16.3558 16.3558C17.511 15.2006 18.16 13.6337 18.16 12C18.16 10.3663 17.511 8.79945 16.3558 7.64422C15.2006 6.489 13.6337 5.84 12 5.84ZM12 16C11.4695 16.0084 10.9425 15.9111 10.4499 15.7139C9.95736 15.5167 9.50893 15.2234 9.13077 14.8512C8.75262 14.479 8.45231 14.0352 8.24731 13.5458C8.04232 13.0564 7.93675 12.5311 7.93675 12.0005C7.93675 11.4699 8.04232 10.9446 8.24731 10.4552C8.45231 9.96576 8.75262 9.52202 9.13077 9.1498C9.50893 8.77758 9.95736 8.48432 10.4499 8.28709C10.9425 8.08986 11.4695 7.99261 12 8.001C13.0498 8.0176 14.0509 8.44628 14.7875 9.19452C15.524 9.94277 15.9368 10.9506 15.9368 12.0005C15.9368 13.0504 15.524 14.0582 14.7875 14.8065C14.0509 15.5547 13.0498 15.9834 12 16Z" />
    <path fill="url(#gradient_3)" d="M19.85 5.59C19.85 5.97191 19.6983 6.33818 19.4282 6.60823C19.1582 6.87829 18.7919 7.03 18.41 7.03C18.0281 7.03 17.6618 6.87829 17.3918 6.60823C17.1217 6.33818 16.97 5.97191 16.97 5.59C16.97 5.20809 17.1217 4.84182 17.3918 4.57177C17.6618 4.30171 18.0281 4.15 18.41 4.15C18.7919 4.15 19.1582 4.30171 19.4282 4.57177C19.6983 4.84182 19.85 5.20809 19.85 5.59Z" />
    <defs>
        <linearGradient id="gradient_1" x1="2.01" y1="21.99" x2="21.99" y2="2.01" gradientUnits="userSpaceOnUse">
            <stop stop-color="#FFD600"/>
            <stop offset="0.5" stop-color="#FF0100"/>
            <stop offset="1" stop-color="#D800B9"/>
        </linearGradient>
        <linearGradient id="gradient_2" x1="7.64" y1="16.36" x2="16.36" y2="7.64" gradientUnits="userSpaceOnUse">
            <stop stop-color="#FF6400"/>
            <stop offset="0.5" stop-color="#FF0100"/>
            <stop offset="1" stop-color="#FD0056"/>
        </linearGradient>
        <linearGradient id="gradient_3" x1="17.39" y1="6.61" x2="19.42" y2="4.58" gradientUnits="userSpaceOnUse">
            <stop stop-color="#F30072"/>
            <stop offset="1" stop-color="#E50097"/>
        </linearGradient>
    </defs>
</svg>
