<svg
    fill="none"
    viewBox="0 0 24 24"
    xmlns="http://www.w3.org/2000/svg"
>
    <path fill="url(#gradient_1)" fill-rule="evenodd" clip-rule="evenodd" d="M12 0C5.24 0 1.87394e-06 5 1.87394e-06 11.64C-0.021715 13.261 0.303441 14.8678 0.953661 16.3528C1.60388 17.8378 2.56413 19.1666 3.77 20.25C3.96102 20.4264 4.07581 20.6703 4.09 20.93L4.16 23.07C4.17365 23.2228 4.22227 23.3704 4.30211 23.5014C4.38194 23.6324 4.49084 23.7433 4.62038 23.8255C4.74993 23.9076 4.89664 23.9589 5.04917 23.9753C5.2017 23.9917 5.35595 23.9728 5.5 23.92L7.89 22.87C8.09086 22.7787 8.31741 22.761 8.53 22.82C9.66 23.128 10.828 23.283 12 23.28C18.76 23.28 24 18.28 24 11.64C24 5 18.76 0 12 0ZM19.21 9L15.68 14.59C15.5474 14.7999 15.3727 14.9802 15.1671 15.1194C14.9614 15.2585 14.7292 15.3537 14.485 15.3988C14.2408 15.4438 13.9899 15.4379 13.7481 15.3813C13.5063 15.3247 13.2788 15.2188 13.08 15.07L10.27 12.97C10.1478 12.8726 9.99623 12.8196 9.84 12.8196C9.68378 12.8196 9.53218 12.8726 9.41 12.97L5.62 15.8C5.56747 15.8545 5.50472 15.8981 5.43534 15.9284C5.36595 15.9586 5.29129 15.9749 5.21561 15.9763C5.13993 15.9777 5.06472 15.9642 4.99426 15.9365C4.92381 15.9088 4.8595 15.8675 4.805 15.815C4.7505 15.7625 4.70688 15.6997 4.67664 15.6303C4.64639 15.561 4.6301 15.4863 4.62871 15.4106C4.62732 15.3349 4.64084 15.2597 4.66852 15.1893C4.69619 15.1188 4.73747 15.0545 4.79 15L8.32 9.45C8.45506 9.24239 8.63151 9.06489 8.83831 8.9286C9.04511 8.79231 9.27781 8.70016 9.52185 8.65792C9.7659 8.61568 10.016 8.62426 10.2566 8.68312C10.4972 8.74198 10.723 8.84986 10.92 9L13.73 11.1C13.8522 11.1974 14.0038 11.2504 14.16 11.2504C14.3162 11.2504 14.4678 11.1974 14.59 11.1L18.38 8.2C18.4878 8.09798 18.6308 8.04143 18.7792 8.04211C18.9277 8.04279 19.0701 8.10065 19.177 8.20366C19.2839 8.30667 19.347 8.44691 19.3531 8.59522C19.3592 8.74353 19.308 8.8885 19.21 9Z" />
    <defs>
        <radialGradient id="gradient_1" cx="0" cy="0" r="1" gradientUnits="userSpaceOnUse" gradientTransform="translate(0.0600025 23.94) scale(27.62)">
            <stop stop-color="#0099FF"/>
            <stop offset="0.61" stop-color="#A033FF"/>
            <stop offset="0.93" stop-color="#FF5280"/>
            <stop offset="1" stop-color="#FF7061"/>
        </radialGradient>
    </defs>
</svg>
