<svg
    fill="none"
    viewBox="0 0 24 24"
    xmlns="http://www.w3.org/2000/svg"
>
    <path fill="#FF0000" d="M23.4997 6.21998C23.3633 5.71171 23.0956 5.24826 22.7235 4.87615C22.3514 4.50404 21.8879 4.23636 21.3797 4.09998C19.5097 3.59998 11.9997 3.59998 11.9997 3.59998C11.9997 3.59998 4.48967 3.59998 2.61967 4.09998C2.1114 4.23636 1.64795 4.50404 1.27584 4.87615C0.903732 5.24826 0.63605 5.71171 0.499665 6.21998C0.154644 8.12704 -0.0127399 10.062 -0.000334498 12C-0.0127399 13.938 0.154644 15.8729 0.499665 17.78C0.63605 18.2882 0.903732 18.7517 1.27584 19.1238C1.64795 19.4959 2.1114 19.7636 2.61967 19.9C4.48967 20.4 11.9997 20.4 11.9997 20.4C11.9997 20.4 19.5097 20.4 21.3797 19.9C21.8879 19.7636 22.3514 19.4959 22.7235 19.1238C23.0956 18.7517 23.3633 18.2882 23.4997 17.78C23.8447 15.8729 24.0121 13.938 23.9997 12C24.0121 10.062 23.8447 8.12704 23.4997 6.21998ZM9.59967 15.6V8.39998L15.8397 12L9.59967 15.6Z" />
</svg>
